<?xml version="1.0" standalone="no"?><!DOCTYPE svg PUBLIC "-//W3C//DTD SVG 1.1//EN" "http://www.w3.org/Graphics/SVG/1.1/DTD/svg11.dtd"><svg t="1618559405156" class="icon" viewBox="0 0 1139 1024" version="1.1" xmlns="http://www.w3.org/2000/svg" p-id="2626" xmlns:xlink="http://www.w3.org/1999/xlink" width="556.15234375" height="500"><defs><style type="text/css"></style></defs><path d="M1134.869173 743.747368L12.318797 739.12782 133.966917 304.120301C144.745865 264.084211 180.932331 235.596992 221.738346 235.596992h703.711278c40.806015 0 76.992481 26.947368 87.771429 66.983459l121.64812 441.166917z" fill="#6097FD" p-id="2627"></path><path d="M1138.718797 933.918797c0 46.965414-37.726316 84.691729-84.691729 84.691729H90.851128c-46.965414 0-84.691729-37.726316-84.69173-84.691729V770.694737c0-46.965414 37.726316-84.691729 84.69173-84.691729h963.17594c46.965414 0 84.691729 37.726316 84.691729 84.691729v163.22406z" fill="#4988FD" p-id="2628"></path><path d="M109.329323 939.308271c-10.778947 0-19.24812-8.469173-19.24812-19.248121V783.783459c0-10.778947 8.469173-19.24812 19.24812-19.248121s19.24812 8.469173 19.248121 19.248121v136.276691c0 10.778947-8.469173 19.24812-19.248121 19.248121zM187.091729 939.308271c-10.778947 0-19.24812-8.469173-19.24812-19.248121V783.783459c0-10.778947 8.469173-19.24812 19.24812-19.248121s19.24812 8.469173 19.248121 19.248121v136.276691c0 10.778947-8.469173 19.24812-19.248121 19.248121zM264.854135 939.308271c-10.778947 0-19.24812-8.469173-19.24812-19.248121V783.783459c0-10.778947 8.469173-19.24812 19.24812-19.248121s19.24812 8.469173 19.248121 19.248121v136.276691c0 10.778947-8.469173 19.24812-19.248121 19.248121zM342.616541 939.308271c-10.778947 0-19.24812-8.469173-19.24812-19.248121V783.783459c0-10.778947 8.469173-19.24812 19.24812-19.248121s19.24812 8.469173 19.248121 19.248121v136.276691c0 10.778947-9.239098 19.24812-19.248121 19.248121z" fill="#2767F4" p-id="2629"></path><path d="M970.875188 852.306767m-77.762406 0a77.762406 77.762406 0 1 0 155.524812 0 77.762406 77.762406 0 1 0-155.524812 0Z" fill="#FFFFFF" p-id="2630"></path><path d="M800.721805 276.403008c0 83.921805-43.115789 158.604511-108.559399 200.950375-37.726316 24.637594-83.15188 39.266165-131.657143 39.266166-133.196992 0-240.986466-107.789474-240.986466-240.986466 0-13.858647 0.769925-27.717293 3.849624-40.806015h474.273684c1.53985 14.628571 3.079699 27.717293 3.0797 41.57594z" fill="#2767F4" p-id="2631"></path><path d="M716.8 421.148872c-36.186466 23.867669-79.302256 37.726316-125.497744 37.726316C464.264662 458.875188 361.864662 356.475188 361.864662 229.437594S464.264662 0 591.302256 0s229.437594 102.4 229.437594 229.437594c0 80.07218-41.57594 150.905263-103.93985 191.711278" fill="#21D3AC" p-id="2632"></path><path d="M571.284211 345.696241l-67.753384-67.753384c-8.469173-8.469173-8.469173-22.32782 0-30.796992s22.32782-8.469173 30.796993 0l30.796992 30.796992V130.887218c0-11.548872 10.009023-21.557895 21.557895-21.557895 11.548872 0 21.557895 10.009023 21.557895 21.557895v147.055639l30.796992-30.796992c8.469173-8.469173 22.32782-8.469173 30.796992 0 3.849624 3.849624 6.159398 10.009023 6.159399 15.398496s-2.309774 10.778947-6.159399 15.398496l-67.753383 67.753384c-3.849624 3.849624-9.239098 6.159398-15.398496 6.159398-5.389474 0-10.778947-2.309774-15.398496-6.159398z" fill="#FFFFFF" p-id="2633"></path></svg>